<?xml version="1.0" encoding="UTF-8" standalone="no"?>
<!-- Created with Inkscape (http://www.inkscape.org/) -->

<svg
   width="333"
   height="333"
   viewBox="0 0 88.10625 88.10625"
   version="1.1"
   id="svg1"
   inkscape:version="1.4 (e7c3feb100, 2024-10-09)"
   sodipodi:docname="luducat-application-base.svg"
   inkscape:export-filename="luducat-application-base.png"
   inkscape:export-xdpi="96"
   inkscape:export-ydpi="96"
   xmlns:inkscape="http://www.inkscape.org/namespaces/inkscape"
   xmlns:sodipodi="http://sodipodi.sourceforge.net/DTD/sodipodi-0.dtd"
   xmlns="http://www.w3.org/2000/svg"
   xmlns:svg="http://www.w3.org/2000/svg">
  <sodipodi:namedview
     id="namedview1"
     pagecolor="#ffffff"
     bordercolor="#000000"
     borderopacity="0.25"
     inkscape:showpageshadow="2"
     inkscape:pageopacity="0.0"
     inkscape:pagecheckerboard="0"
     inkscape:deskcolor="#d1d1d1"
     inkscape:document-units="mm"
     inkscape:zoom="1.9175014"
     inkscape:cx="91.786114"
     inkscape:cy="140.02598"
     inkscape:window-width="1920"
     inkscape:window-height="1004"
     inkscape:window-x="0"
     inkscape:window-y="0"
     inkscape:window-maximized="1"
     inkscape:current-layer="g5" />
  <defs
     id="defs1" />
  <g
     inkscape:label="Layer 1"
     inkscape:groupmode="layer"
     id="layer1">
    <g
       id="g5"
       inkscape:label="full_logo"
       transform="matrix(0.26458333,0,0,0.26458333,-22.313785,-20.773402)">
      <g
         id="g2"
         inkscape:label="logo_circle"
         transform="translate(-0.3219181,4.451042)">
        <g
           id="g3"
           inkscape:label="background_circle">
				<path
   style="fill:#30b19f"
   d="m 95.718,217.16 c 0,0 -10.241,73.142 33.033,124.387 43.273,51.243 188.276,63.229 242.039,-2.304 53.426,-65.123 42.4,-136.6 7.317,-185.417 C 343.227,105.293 251.27,79.038 182.575,110.656 104.792,146.457 95.718,217.16 95.718,217.16 Z"
   id="path1" />

				<path
   style="fill:#33bdaa"
   d="m 402.789,205.624 c -32.283,19.12 -86.335,29.516 -184.302,29.179 -51.706,-0.18 -91.717,9.294 -122.676,23.55 2.654,24.965 10.777,56.949 32.939,83.194 43.273,51.243 188.276,63.229 242.039,-2.304 36.65,-44.67 42.967,-92.333 32,-133.619 z"
   id="path2" />

				<path
   style="fill:#3fccb9"
   d="m 296.39,314.86 c -55.595,24.763 -100.759,40.552 -138.207,48.957 59.893,30.807 167.855,29.978 212.608,-24.573 14.333,-17.471 24.01,-35.4 29.844,-53.225 -31.676,3.061 -66.398,11.983 -104.245,28.841 z"
   id="path3" />

			</g>
        <g
           style="display:none;opacity:0.5"
           id="g94">
				<g
   id="g93">
					<path
   style="fill:#ffffff"
   d="m 351.434,175.402 c -0.162,-0.025 -0.316,-0.076 -0.456,-0.151 -0.179,-0.091 -0.341,-0.224 -0.471,-0.39 -0.11,-0.14 -0.195,-0.299 -0.249,-0.474 -0.04,-0.13 -0.061,-0.264 -0.064,-0.398 l -0.495,-12.376 c -0.007,-0.102 -0.002,-0.204 0.013,-0.305 0.005,-0.034 0.011,-0.068 0.02,-0.101 0.039,-0.176 0.111,-0.34 0.207,-0.486 0.115,-0.174 0.262,-0.317 0.427,-0.423 0.175,-0.114 0.377,-0.188 0.593,-0.219 0.17,-0.024 0.347,-0.017 0.52,0.024 0.135,0.03 0.263,0.079 0.381,0.142 l 10.967,5.758 c 0.123,0.06 0.237,0.142 0.34,0.236 0.129,0.122 0.233,0.263 0.31,0.416 0.095,0.191 0.145,0.393 0.153,0.595 0.004,0.093 -10e-4,0.186 -0.015,0.279 -0.017,0.111 -0.047,0.222 -0.091,0.329 -0.066,0.163 -0.162,0.317 -0.286,0.45 -0.092,0.098 -0.196,0.183 -0.308,0.251 l -10.472,6.62 c -0.116,0.077 -0.243,0.135 -0.378,0.178 -0.167,0.051 -0.341,0.071 -0.511,0.06 -0.045,-0.004 -0.091,-0.009 -0.135,-0.015 z m 1.285,-11.403 0.295,7.37 6.234,-3.942 z"
   id="path92" />

				</g>

			</g>
        <g
           id="g97"
           style="display:none">
				<g
   id="g95">
					<path
   style="fill:#ffffff"
   d="m 185.906,153.579 c -0.415,-0.063 -0.8,-0.303 -1.033,-0.69 l -6.914,-11.479 c -0.416,-0.692 -0.192,-1.59 0.498,-2.005 0.693,-0.418 1.59,-0.194 2.006,0.497 l 6.913,11.478 c 0.417,0.692 0.193,1.59 -0.497,2.006 -0.305,0.183 -0.648,0.243 -0.973,0.193 z"
   id="path94" />

				</g>

				<g
   id="g96">
					<path
   style="fill:#ffffff"
   d="m 176.71,151.296 c -0.416,-0.063 -0.801,-0.303 -1.035,-0.691 -0.416,-0.692 -0.193,-1.59 0.499,-2.006 l 11.48,-6.912 c 0.692,-0.417 1.59,-0.194 2.006,0.498 0.417,0.691 0.193,1.589 -0.498,2.006 l -11.48,6.913 c -0.305,0.182 -0.648,0.242 -0.972,0.192 z"
   id="path95" />

				</g>

			</g>
        <g
           style="display:none;opacity:0.5"
           id="g100">
				<g
   id="g98">
					<path
   style="fill:#ffffff"
   d="m 391.684,243.727 c -0.556,-0.084 -1.037,-0.487 -1.193,-1.064 l -3.498,-12.933 c -0.21,-0.779 0.251,-1.582 1.03,-1.792 0.78,-0.211 1.581,0.25 1.793,1.028 l 3.497,12.935 c 0.21,0.78 -0.251,1.581 -1.029,1.793 -0.202,0.053 -0.405,0.063 -0.6,0.033 z"
   id="path97" />

				</g>

				<g
   id="g99">
					<path
   style="fill:#ffffff"
   d="m 383.467,239.009 c -0.556,-0.084 -1.037,-0.485 -1.194,-1.062 -0.21,-0.78 0.251,-1.582 1.03,-1.792 l 12.936,-3.499 c 0.781,-0.209 1.582,0.25 1.793,1.028 0.21,0.781 -0.25,1.583 -1.029,1.794 l -12.937,3.5 c -0.202,0.052 -0.405,0.06 -0.599,0.031 z"
   id="path98" />

				</g>

			</g>
        <g
           id="g102"
           style="display:none">
				<g
   id="g101">
					<path
   style="fill:#ffffff"
   d="m 116.53,216.656 c -3.141,-0.476 -5.513,-3.129 -5.64,-6.307 -0.146,-3.663 2.714,-6.762 6.377,-6.91 0.424,-0.015 0.851,0.007 1.268,0.07 3.141,0.476 5.514,3.128 5.64,6.307 0.071,1.773 -0.552,3.47 -1.758,4.775 -1.204,1.307 -2.845,2.064 -4.619,2.134 -0.424,0.015 -0.85,-0.005 -1.268,-0.069 z m 1.623,-10.625 c -0.257,-0.039 -0.521,-0.053 -0.784,-0.044 -2.258,0.09 -4.021,2.002 -3.932,4.259 0.078,1.96 1.541,3.595 3.476,3.888 0.257,0.039 0.521,0.054 0.783,0.044 1.094,-0.044 2.106,-0.511 2.849,-1.316 0.743,-0.804 1.129,-1.851 1.085,-2.944 -0.08,-1.958 -1.542,-3.594 -3.477,-3.887 z"
   id="path100" />

				</g>

			</g>
        <g
           id="g104"
           style="display:none">
				<g
   id="g103">
					<path
   style="fill:#ffffff"
   d="m 274.584,132.909 c -0.276,-0.185 -0.481,-0.46 -0.581,-0.78 -0.114,-0.371 -0.076,-0.771 0.104,-1.114 l 3.879,-7.355 c 0.377,-0.715 1.261,-0.987 1.976,-0.611 l 11.444,6.034 c 0.707,0.37 0.988,1.26 0.611,1.975 l -3.879,7.357 c -0.18,0.343 -0.49,0.6 -0.861,0.715 -0.37,0.114 -0.771,0.077 -1.114,-0.104 l -11.444,-6.035 c -0.047,-0.026 -0.092,-0.052 -0.135,-0.082 z m 5.306,-6.594 -2.516,4.77 8.86,4.673 2.515,-4.771 z"
   id="path102" />

				</g>

			</g>
        <path
           style="opacity:0.5;fill:#ffffff"
           d="m 210.601,172.05 c -0.377,2.483 -2.695,4.189 -5.178,3.813 -2.482,-0.376 -4.19,-2.693 -3.813,-5.176 0.376,-2.482 2.694,-4.189 5.177,-3.813 2.483,0.376 4.191,2.694 3.814,5.176 z"
           id="path105" />
        <path
           style="fill:#ffffff"
           d="m 293.925,363.527 c -0.417,2.748 -2.984,4.638 -5.731,4.222 -2.749,-0.417 -4.64,-2.983 -4.223,-5.732 0.417,-2.748 2.983,-4.638 5.733,-4.221 2.746,0.416 4.638,2.983 4.221,5.731 z"
           id="path104" />
      </g>
      <g
         id="g92"
         inkscape:label="controller"
         transform="translate(1.3937716,-8.3626296)">
				
				<g
   id="g10">
					<g
   id="g9">
						<g
   id="g6">
							<path
   style="fill:#182638"
   d="m 153.074,198.712 c 0,0 1.264,-11.72 6.508,-14.763 5.246,-3.041 25.986,-6.577 30.476,-2.81 4.489,3.766 8.337,12.564 8.337,12.564 z"
   id="path5" />

						</g>

						<g
   id="g8">
							<g
   id="g7">
								<path
   style="fill:#131d2b"
   d="m 188.859,194.758 9.537,-1.055 c 0,0 -3.849,-8.798 -8.337,-12.564 -1.323,-1.109 -4.06,-1.583 -7.391,-1.623 3.198,4.774 5.083,10.434 6.191,15.242 z"
   id="path6" />

							</g>

						</g>

					</g>

					<path
   style="fill:#2e3e52"
   d="m 148.714,199.984 c 0,0 1.783,-5.672 5.192,-7.646 7.22,-4.183 34.152,-7.91 39.206,-8.051 4.621,-0.128 7.032,5.176 7.032,5.176"
   id="path9" />

					<path
   style="fill:#223145"
   d="m 148.714,199.984 c 0,0 1.783,-5.672 5.192,-7.646 7.22,-4.183 34.152,-7.91 39.206,-8.051 4.621,-0.128 7.032,5.176 7.032,5.176"
   id="path10" />

				</g>

				<g
   id="g15">
					<g
   id="g14">
						<g
   id="g11">
							<path
   style="fill:#182638"
   d="m 346.879,198.892 c 0,0 -1.24,-11.721 -6.48,-14.773 -5.239,-3.051 -25.974,-6.625 -30.47,-2.868 -4.498,3.758 -8.359,12.549 -8.359,12.549 z"
   id="path11" />

						</g>

						<g
   id="g13">
							<g
   id="g12">
								<path
   style="fill:#131d2b"
   d="M 311.103,194.872 301.57,193.8 c 0,0 3.862,-8.791 8.359,-12.549 1.324,-1.107 4.062,-1.574 7.394,-1.609 -3.206,4.768 -5.104,10.424 -6.22,15.23 z"
   id="path12" />

							</g>

						</g>

					</g>

					<path
   style="fill:#2e3e52"
   d="m 351.241,200.175 c 0,0 -1.774,-5.678 -5.179,-7.659 -7.214,-4.195 -34.139,-7.972 -39.191,-8.123 -4.621,-0.137 -7.042,5.164 -7.042,5.164"
   id="path14" />

					<path
   style="fill:#223145"
   d="m 351.241,200.175 c 0,0 -1.774,-5.678 -5.179,-7.659 -7.214,-4.195 -34.139,-7.972 -39.191,-8.123 -4.621,-0.137 -7.042,5.164 -7.042,5.164"
   id="path15" />

				</g>

				<g
   id="g16">
					<path
   style="fill:#2e3e52"
   d="m 260.349,203.751 c -10e-4,1.391 -1.13,2.518 -2.521,2.516 l -21.407,-0.02 c -1.39,0 -2.517,-1.128 -2.515,-2.52 l 2.54,-24.237 c 0.001,-1.392 1.13,-2.518 2.521,-2.517 l 16.37,0.015 c 1.39,0.002 2.517,1.13 2.516,2.522 z"
   id="path16" />

				</g>

				<g
   id="g17">
					<path
   style="fill:#223145"
   d="m 247.285,182.229 c -3.348,0.086 -7.273,-0.218 -11.193,0.633 l -2.186,20.865 c -0.002,1.392 1.125,2.52 2.515,2.52 l 21.407,0.02 c 1.391,0.002 2.52,-1.125 2.521,-2.516 l -2.208,-21.449 c -3.45,-0.047 -7.763,-0.032 -10.856,-0.073 z"
   id="path17" />

				</g>

				<g
   id="g18">
					<path
   style="fill:#2e3e52"
   d="m 396.73,315.949 c -13.379,-54.577 -33.056,-108.744 -42.705,-115.048 -9.647,-6.305 -39.586,-15.147 -106.743,-16.05 -62.122,1.622 -94.87,9.565 -104.529,15.854 -9.66,6.285 -29.439,60.414 -42.921,114.968 -13.483,54.555 8.746,72.623 33.093,70.547 24.346,-2.076 53.625,-78.851 59.686,-88.931 2.31,-3.838 47.546,-4.473 55.157,-4.552 7.451,0.087 53.905,0.796 56.218,4.659 6.043,10.09 35.177,86.919 59.519,89.039 24.344,2.123 46.605,-15.907 33.225,-70.486 z"
   id="path18" />

				</g>

				<g
   id="g24">
					<g
   id="g19">
						<path
   style="fill:#2e3e52"
   d="m 307.208,286.902 c -0.01,11.823 -9.603,21.398 -21.427,21.386 -11.822,-0.012 -21.397,-9.604 -21.386,-21.425 0.012,-11.825 9.604,-21.4 21.427,-21.387 11.822,0.009 21.397,9.605 21.386,21.426 z"
   id="path19" />

					</g>

					<g
   id="g20">
						<path
   style="fill:#223145"
   d="m 307.208,286.902 c -0.01,11.823 -9.603,21.398 -21.427,21.386 -11.822,-0.012 -21.397,-9.604 -21.386,-21.425 0.012,-11.825 9.604,-21.4 21.427,-21.387 11.822,0.009 21.397,9.605 21.386,21.426 z"
   id="path20" />

					</g>

					<g
   id="g23">
						<g
   id="g21">
							<path
   style="fill:#182638"
   d="m 302.488,286.897 c -0.009,9.275 -7.533,16.783 -16.807,16.774 -9.271,-0.008 -16.781,-7.531 -16.772,-16.806 0.008,-9.271 7.531,-16.781 16.804,-16.773 9.273,0.009 16.784,7.534 16.775,16.805 z"
   id="path21" />

						</g>

						<g
   id="g22">
							<path
   style="fill:#131d2b"
   d="m 298.695,276.257 c 0.823,1.982 1.28,4.159 1.278,6.44 -0.008,9.276 -7.533,16.784 -16.806,16.773 -5.233,-0.004 -9.905,-2.407 -12.98,-6.163 2.522,6.078 8.507,10.358 15.495,10.365 9.273,0.009 16.798,-7.5 16.807,-16.774 0.003,-4.037 -1.422,-7.745 -3.794,-10.641 z"
   id="path22" />

						</g>

					</g>

				</g>

				<g
   id="g27">
					<g
   id="g25">
						<path
   style="fill:#2e3e52"
   d="m 210.383,236.909 c -0.016,18.426 -14.972,33.355 -33.401,33.336 -18.429,-0.015 -33.355,-14.971 -33.339,-33.399 0.018,-18.43 14.972,-33.356 33.401,-33.339 18.43,0.017 33.356,14.97 33.339,33.402 z"
   id="path24" />

					</g>

					<g
   id="g26">
						<path
   style="fill:#223145"
   d="m 210.383,236.909 c -0.016,18.426 -14.972,33.355 -33.401,33.336 -18.429,-0.015 -33.355,-14.971 -33.339,-33.399 0.018,-18.43 14.972,-33.356 33.401,-33.339 18.43,0.017 33.356,14.97 33.339,33.402 z"
   id="path25" />

					</g>

					<path
   style="fill:#dde1e1"
   d="m 206.106,236.904 c -0.015,16.064 -13.053,29.078 -29.12,29.066 -16.066,-0.015 -29.08,-13.054 -29.064,-29.119 0.015,-16.068 13.053,-29.081 29.12,-29.066 16.065,0.014 29.078,13.052 29.064,29.119 z"
   id="path26" />

					<path
   style="fill:#cccece"
   d="m 202.045,222.055 c 1.402,3.414 2.18,7.151 2.176,11.072 -0.016,16.067 -13.052,29.08 -29.119,29.062 -10.644,-0.008 -19.941,-5.735 -25.005,-14.268 4.346,10.579 14.742,18.038 26.889,18.05 16.067,0.012 29.105,-13.002 29.12,-29.066 0.004,-5.425 -1.48,-10.501 -4.061,-14.85 z"
   id="path27" />

				</g>

				<g
   id="g28">
					<path
   style="fill:#2e3e52"
   d="m 168.317,230.404 -10.377,-0.01 c -1.691,-0.002 -3.062,1.367 -3.065,3.06 l -0.006,6.804 c -0.002,1.69 1.368,3.064 3.06,3.063 l 10.376,0.011 6.833,-6.496 z"
   id="path28" />

				</g>

				<g
   id="g29">
					<path
   style="fill:#2e3e52"
   d="m 185.814,230.421 10.376,0.01 c 1.69,10e-4 3.061,1.374 3.059,3.064 l -0.006,6.805 c -0.002,1.69 -1.374,3.06 -3.065,3.06 l -10.377,-0.01 -6.821,-6.509 z"
   id="path29" />

				</g>

				<g
   id="g30">
					<path
   style="fill:#223145"
   d="m 168.308,240.395 -10.376,-0.01 c -1.69,-0.003 -3.062,-1.372 -3.059,-3.066 l -0.003,2.939 c -0.002,1.69 1.368,3.064 3.06,3.063 l 10.376,0.011 6.833,-6.496 -1.55,-1.46 z"
   id="path30" />

				</g>

				<g
   id="g31">
					<path
   style="fill:#223145"
   d="m 196.182,240.421 -10.377,-0.01 -5.271,-5.031 -1.553,1.461 6.821,6.509 10.377,0.01 c 1.691,0 3.064,-1.37 3.065,-3.06 l 0.002,-2.938 c -0.001,1.692 -1.374,3.061 -3.064,3.059 z"
   id="path31" />

				</g>

				<g
   id="g32">
					<path
   style="fill:#2e3e52"
   d="m 183.532,228.134 0.01,-10.376 c 0.001,-1.691 -1.369,-3.064 -3.06,-3.064 l -6.805,-0.007 c -1.691,-0.003 -3.064,1.368 -3.065,3.058 l -0.01,10.378 6.496,6.833 z"
   id="path32" />

				</g>

				<g
   id="g33">
					<path
   style="fill:#2e3e52"
   d="m 183.516,245.63 -0.011,10.379 c -0.001,1.689 -1.373,3.059 -3.065,3.057 l -6.804,-0.005 c -1.691,0 -3.062,-1.373 -3.06,-3.066 l 0.01,-10.376 6.509,-6.821 z"
   id="path33" />

				</g>

				<g
   id="g34">
					<path
   style="fill:#223145"
   d="m 180.483,214.694 -2.519,-0.002 c 1.691,0.002 3.062,1.373 3.06,3.064 l -0.01,10.375 -5.179,5.492 1.265,1.332 6.433,-6.822 0.01,-10.376 c 0.001,-1.69 -1.369,-3.063 -3.06,-3.063 z"
   id="path34" />

				</g>

				<g
   id="g35">
					<path
   style="fill:#223145"
   d="m 177.096,238.798 -1.268,1.329 5.17,5.501 -0.009,10.378 c -0.002,1.691 -1.374,3.061 -3.066,3.059 l 2.519,0.002 c 1.692,0.002 3.064,-1.368 3.065,-3.057 l 0.011,-10.379 z"
   id="path35" />

				</g>

				<g
   id="g36">
					<path
   style="fill:#223145"
   d="m 137.398,207.223 c -10.48,17.128 -26.243,62.632 -37.565,108.449 -13.483,54.555 8.746,72.623 33.093,70.547 24.346,-2.076 53.625,-78.851 59.686,-88.931 -61.753,-17.897 -61.736,-62.952 -55.214,-90.065 z"
   id="path36" />

				</g>

				<g
   id="g37">
					<path
   style="fill:#223145"
   d="m 396.73,315.949 c -11.897,-48.531 -28.768,-96.704 -39.145,-111.223 7.459,30.606 3.22,74.674 -53.533,92.783 6.177,10.509 35.195,86.811 59.454,88.926 24.343,2.123 46.604,-15.907 33.224,-70.486 z"
   id="path37" />

				</g>

				<g
   id="g38">
					<path
   style="fill:#19283b"
   d="m 176.357,331.613 c 7.874,-16.028 13.867,-30.351 16.255,-34.324 -22.093,-6.401 -36.275,-16.281 -45.086,-27.57 l -0.357,0.246 c -0.001,0 6.056,45.329 29.188,61.648 z"
   id="path38" />

				</g>

				<g
   id="g39">
					<path
   style="fill:#19283b"
   d="m 304.052,297.509 c 2.322,3.946 7.865,17.182 15.17,32.279 19.391,-16.256 25.754,-53.093 26.644,-58.865 -8.753,10.888 -22.12,20.302 -41.814,26.586 z"
   id="path39" />

				</g>

				<g
   id="g48">
					<g
   id="g42">
						<g
   id="g40">
							<path
   style="fill:#2e3e52"
   d="m 255.085,222.633 -15.53,-0.014 c -2.777,-0.001 -5.038,2.144 -5.043,4.787 l -0.002,3.221 c -0.003,2.642 2.255,4.791 5.033,4.794 l 15.529,0.016 c 2.778,0.003 5.039,-2.144 5.042,-4.786 l 0.003,-3.221 c 0.003,-2.642 -2.255,-4.792 -5.032,-4.797 z"
   id="path40" />

						</g>

						<g
   id="g41">
							<path
   style="fill:#2e3e52"
   d="m 255.067,241.943 -15.53,-0.013 c -2.778,-0.003 -5.039,2.143 -5.041,4.786 l -0.003,3.217 c -0.003,2.643 2.255,4.795 5.032,4.798 l 15.53,0.016 c 2.778,0 5.039,-2.145 5.042,-4.788 l 0.003,-3.22 c 0.002,-2.642 -2.256,-4.792 -5.033,-4.796 z"
   id="path41" />

						</g>

					</g>

					<g
   id="g45">
						<g
   id="g43">
							<path
   style="fill:#2e3e52"
   d="m 255.085,222.633 -15.53,-0.014 c -2.777,-0.001 -5.038,2.144 -5.043,4.787 l -0.002,3.221 c -0.003,2.642 2.255,4.791 5.033,4.794 l 15.529,0.016 c 2.778,0.003 5.039,-2.144 5.042,-4.786 l 0.003,-3.221 c 0.003,-2.642 -2.255,-4.792 -5.032,-4.797 z"
   id="path42" />

						</g>

						<g
   id="g44">
							<path
   style="fill:#2e3e52"
   d="m 255.067,241.943 -15.53,-0.013 c -2.778,-0.003 -5.039,2.143 -5.041,4.786 l -0.003,3.217 c -0.003,2.643 2.255,4.795 5.032,4.798 l 15.53,0.016 c 2.778,0 5.039,-2.145 5.042,-4.788 l 0.003,-3.22 c 0.002,-2.642 -2.256,-4.792 -5.033,-4.796 z"
   id="path43" />

						</g>

					</g>

					<path
   style="fill:#dde1e1"
   d="m 257.596,230.647 c -0.002,1.256 -1.13,2.272 -2.52,2.27 l -15.531,-0.013 c -1.391,-0.001 -2.517,-1.021 -2.515,-2.276 l 0.002,-3.219 c 0.002,-1.255 1.131,-2.272 2.521,-2.27 l 15.53,0.014 c 1.391,0.001 2.517,1.021 2.516,2.275 z"
   id="path45" />

					<path
   style="fill:#dde1e1"
   d="m 257.578,249.956 c -10e-4,1.254 -1.13,2.272 -2.52,2.271 l -15.531,-0.013 c -1.39,-0.002 -2.518,-1.021 -2.515,-2.275 l 0.003,-3.221 c 0.001,-1.255 1.13,-2.271 2.52,-2.269 l 15.53,0.013 c 1.391,0.001 2.517,1.02 2.516,2.275 z"
   id="path46" />

					<path
   style="fill:#cccece"
   d="m 255.077,230.714 -15.53,-0.013 c -1.391,-0.002 -2.518,-1.02 -2.516,-2.275 l -0.001,2.202 c -0.001,1.255 1.124,2.275 2.515,2.276 l 15.531,0.013 c 1.39,0.002 2.518,-1.014 2.52,-2.27 l 10e-4,-2.203 c 0,1.254 -1.129,2.27 -2.52,2.27 z"
   id="path47" />

					<path
   style="fill:#cccece"
   d="m 255.059,250.023 -15.53,-0.016 c -1.391,0.001 -2.518,-1.02 -2.517,-2.275 l -0.001,2.206 c -0.003,1.254 1.125,2.273 2.515,2.275 l 15.531,0.013 c 1.39,0.001 2.519,-1.016 2.52,-2.271 l 0.003,-2.203 c -0.002,1.256 -1.13,2.273 -2.521,2.271 z"
   id="path48" />

				</g>

				<g
   id="g49">
					
				</g>

				<g
   id="g85">
					<g
   id="g73">
						<g
   id="g61">
							<g
   id="g55">
								<g
   id="g54">
									<g
   id="g53">
										<g
   id="g50">
											<path
   style="fill:#2e3e52"
   d="m 334.837,216.847 c -0.008,8.226 -6.685,14.892 -14.91,14.885 -8.229,-0.008 -14.892,-6.687 -14.885,-14.912 0.008,-8.23 6.684,-14.895 14.913,-14.886 8.225,0.009 14.889,6.685 14.882,14.913 z"
   id="path50" />

										</g>

										<g
   id="g51">
											<path
   style="fill:#223145"
   d="m 334.837,216.847 c -0.008,8.226 -6.685,14.892 -14.91,14.885 -8.229,-0.008 -14.892,-6.687 -14.885,-14.912 0.008,-8.23 6.684,-14.895 14.913,-14.886 8.225,0.009 14.889,6.685 14.882,14.913 z"
   id="path51" />

										</g>

										<path
   style="fill:#f8c437"
   d="m 331.122,216.845 c -0.007,6.175 -5.018,11.176 -11.192,11.17 -6.176,-0.005 -11.176,-5.017 -11.171,-11.19 0.006,-6.174 5.016,-11.178 11.192,-11.174 6.174,0.006 11.177,5.019 11.171,11.194 z"
   id="path52" />

										<path
   style="fill:#d3a32d"
   d="m 328.776,210 c 0.47,1.24 0.739,2.58 0.738,3.985 -0.007,6.174 -5.015,11.176 -11.191,11.172 -3.593,-0.005 -6.782,-1.711 -8.825,-4.349 1.603,4.207 5.661,7.203 10.431,7.207 6.174,0.006 11.185,-4.995 11.192,-11.17 0.002,-2.58 -0.878,-4.95 -2.345,-6.845 z"
   id="path53" />

									</g>

								</g>

							</g>

							<g
   id="g60">
								<g
   id="g59">
									<g
   id="g58">
										<g
   id="g56">
											<path
   style="fill:#2e3e52"
   d="m 334.798,258.057 c -0.006,8.225 -6.685,14.893 -14.91,14.885 -8.228,-0.009 -14.893,-6.688 -14.883,-14.914 0.007,-8.228 6.683,-14.892 14.911,-14.884 8.226,0.007 14.89,6.684 14.882,14.913 z"
   id="path55" />

										</g>

										<g
   id="g57">
											<path
   style="fill:#223145"
   d="m 334.798,258.057 c -0.006,8.225 -6.685,14.893 -14.91,14.885 -8.228,-0.009 -14.893,-6.688 -14.883,-14.914 0.007,-8.228 6.683,-14.892 14.911,-14.884 8.226,0.007 14.89,6.684 14.882,14.913 z"
   id="path56" />

										</g>

										<path
   style="fill:#30b19f"
   d="m 331.081,258.053 c -0.006,6.174 -5.015,11.178 -11.19,11.169 -6.176,-0.004 -11.177,-5.018 -11.172,-11.191 0.005,-6.173 5.016,-11.176 11.192,-11.171 6.175,0.005 11.177,5.018 11.17,11.193 z"
   id="path57" />

										<path
   style="fill:#289986"
   d="m 328.738,251.208 c 0.47,1.241 0.74,2.579 0.739,3.985 -0.005,6.173 -5.016,11.176 -11.191,11.172 -3.594,-0.003 -6.782,-1.711 -8.825,-4.348 1.603,4.206 5.661,7.203 10.431,7.206 6.174,0.009 11.184,-4.995 11.19,-11.169 0.002,-2.583 -0.878,-4.953 -2.344,-6.846 z"
   id="path58" />

									</g>

								</g>

							</g>

						</g>

						<g
   id="g72">
							<g
   id="g66">
								<g
   id="g65">
									<g
   id="g64">
										<g
   id="g62">
											<path
   style="fill:#2e3e52"
   d="m 312.665,237.431 c -0.008,8.226 -6.686,14.892 -14.911,14.884 -8.228,-0.007 -14.892,-6.685 -14.885,-14.912 0.008,-8.229 6.684,-14.89 14.912,-14.884 8.226,0.009 14.891,6.685 14.884,14.912 z"
   id="path61" />

										</g>

										<g
   id="g63">
											<path
   style="fill:#223145"
   d="m 312.665,237.431 c -0.008,8.226 -6.686,14.892 -14.911,14.884 -8.228,-0.007 -14.892,-6.685 -14.885,-14.912 0.008,-8.229 6.684,-14.89 14.912,-14.884 8.226,0.009 14.891,6.685 14.884,14.912 z"
   id="path62" />

										</g>

										<path
   style="fill:#935aaf"
   d="m 308.948,237.428 c -0.006,6.174 -5.017,11.178 -11.191,11.172 -6.175,-0.007 -11.176,-5.017 -11.17,-11.194 0.006,-6.174 5.016,-11.174 11.191,-11.169 6.174,0.006 11.175,5.015 11.17,11.191 z"
   id="path63" />

										<path
   style="fill:#704689"
   d="m 306.602,230.582 c 0.472,1.24 0.743,2.579 0.741,3.986 -0.006,6.174 -5.017,11.176 -11.191,11.17 -3.594,-0.002 -6.782,-1.707 -8.826,-4.346 1.603,4.207 5.661,7.203 10.43,7.208 6.175,0.007 11.186,-4.997 11.191,-11.172 0.003,-2.58 -0.877,-4.951 -2.345,-6.846 z"
   id="path64" />

									</g>

								</g>

							</g>

							<g
   id="g71">
								<g
   id="g70">
									<g
   id="g69">
										<g
   id="g67">
											<path
   style="fill:#2e3e52"
   d="m 356.972,237.472 c -0.008,8.227 -6.687,14.893 -14.913,14.885 -8.227,-0.008 -14.89,-6.685 -14.883,-14.911 0.008,-8.229 6.684,-14.892 14.91,-14.884 8.228,0.007 14.894,6.681 14.886,14.91 z"
   id="path66" />

										</g>

										<g
   id="g68">
											<path
   style="fill:#223145"
   d="m 356.972,237.472 c -0.008,8.227 -6.687,14.893 -14.913,14.885 -8.227,-0.008 -14.89,-6.685 -14.883,-14.911 0.008,-8.229 6.684,-14.892 14.91,-14.884 8.228,0.007 14.894,6.681 14.886,14.91 z"
   id="path67" />

										</g>

										<path
   style="fill:#ea4a3f"
   d="m 353.254,237.47 c -0.007,6.174 -5.016,11.176 -11.192,11.17 -6.175,-0.005 -11.175,-5.018 -11.17,-11.191 0.005,-6.176 5.018,-11.177 11.191,-11.171 6.175,0.006 11.177,5.016 11.171,11.192 z"
   id="path68" />

										<path
   style="fill:#c63936"
   d="m 350.908,230.624 c 0.472,1.24 0.744,2.579 0.743,3.986 -0.006,6.174 -5.018,11.177 -11.194,11.17 -3.593,-0.003 -6.78,-1.708 -8.825,-4.345 1.605,4.205 5.662,7.201 10.432,7.206 6.176,0.005 11.185,-4.996 11.192,-11.17 0.001,-2.582 -0.881,-4.955 -2.348,-6.847 z"
   id="path69" />

									</g>

								</g>

							</g>

						</g>

					</g>

					<g
   id="g75">
						<g
   id="g74">
							<path
   style="fill:#182638"
   d="m 339.512,242.98 c -0.113,-0.017 -0.224,-0.055 -0.326,-0.114 -0.286,-0.166 -0.463,-0.473 -0.463,-0.804 l 0.007,-8.474 c 0,-0.047 0.003,-0.093 0.01,-0.138 0.042,-0.277 0.208,-0.523 0.454,-0.665 0.288,-0.166 0.641,-0.165 0.929,0.001 l 7.336,4.243 c 0.286,0.166 0.463,0.473 0.463,0.804 0,0.047 -0.003,0.093 -0.01,0.138 -0.042,0.277 -0.208,0.523 -0.454,0.666 l -7.343,4.231 c -0.186,0.105 -0.399,0.143 -0.603,0.112 z m 1.072,-7.784 -0.004,5.259 4.557,-2.626 z"
   id="path73" />

						</g>

					</g>

					<g
   id="g80">
						<g
   id="g77">
							<g
   id="g76">
								<path
   style="fill:#182638"
   d="m 319.953,222.119 c -0.446,-0.068 -0.788,-0.453 -0.788,-0.918 l 0.008,-9.128 c 0,-0.513 0.416,-0.928 0.929,-0.928 0.505,0 0.927,0.417 0.927,0.929 l -0.008,9.128 c 0,0.513 -0.416,0.928 -0.929,0.928 -0.046,0 -0.093,-0.004 -0.139,-0.011 z"
   id="path75" />

							</g>

						</g>

						<g
   id="g79">
							<g
   id="g78">
								<path
   style="fill:#182638"
   d="m 315.392,217.551 c -0.446,-0.068 -0.788,-0.453 -0.788,-0.918 0,-0.513 0.416,-0.928 0.929,-0.928 l 9.131,0.008 c 0.502,0 0.927,0.416 0.927,0.929 0,0.513 -0.416,0.928 -0.929,0.928 l -9.131,-0.008 c -0.047,0 -0.093,-0.004 -0.139,-0.011 z"
   id="path77" />

							</g>

						</g>

					</g>

					<g
   id="g82">
						<g
   id="g81">
							<path
   style="fill:#182638"
   d="m 297.105,242.432 c -1.074,-0.163 -2.066,-0.663 -2.848,-1.446 -0.968,-0.969 -1.499,-2.257 -1.497,-3.626 0.001,-1.368 0.534,-2.655 1.504,-3.623 0.969,-0.967 2.256,-1.499 3.625,-1.498 2.818,0 5.124,2.305 5.122,5.129 -0.001,1.37 -0.535,2.657 -1.505,3.625 -0.969,0.967 -2.256,1.499 -3.625,1.497 -0.263,0.001 -0.522,-0.019 -0.776,-0.058 z m 1.27,-8.299 c -0.159,-0.024 -0.323,-0.037 -0.489,-0.037 -0.873,-0.001 -1.693,0.338 -2.311,0.955 -0.618,0.617 -0.958,1.438 -0.96,2.311 -0.001,0.874 0.338,1.695 0.955,2.313 0.617,0.619 1.433,0.96 2.312,0.96 0.873,0.001 1.693,-0.338 2.311,-0.954 0.619,-0.618 0.96,-1.439 0.961,-2.313 v 0 c 0.002,-1.636 -1.206,-2.996 -2.779,-3.235 z"
   id="path80" />

						</g>

					</g>

					<g
   id="g84">
						<g
   id="g83">
							<path
   style="fill:#182638"
   d="m 315.351,261.543 c -0.195,-0.03 -0.377,-0.121 -0.518,-0.262 -0.174,-0.175 -0.272,-0.411 -0.271,-0.657 l 0.006,-5.667 c 0,-0.512 0.416,-0.927 0.929,-0.927 l 8.816,0.009 c 0.516,0.002 0.928,0.417 0.927,0.929 l -0.006,5.665 c 0,0.512 -0.416,0.927 -0.929,0.927 l -8.816,-0.007 c -0.045,0 -0.092,-0.003 -0.138,-0.01 z m 1.073,-5.655 -0.004,3.81 6.959,0.005 0.004,-3.808 z"
   id="path82" />

						</g>

					</g>

				</g>

				<g
   id="g91">
					<g
   id="g86">
						<path
   style="fill:#2e3e52"
   d="m 232.496,286.832 c -0.011,11.822 -9.604,21.397 -21.427,21.387 -11.822,-0.012 -21.397,-9.605 -21.386,-21.427 0.012,-11.824 9.605,-21.398 21.426,-21.387 11.822,0.011 21.398,9.605 21.387,21.427 z"
   id="path85" />

					</g>

					<g
   id="g87">
						<path
   style="fill:#223145"
   d="m 232.496,286.832 c -0.011,11.822 -9.604,21.397 -21.427,21.387 -11.822,-0.012 -21.397,-9.605 -21.386,-21.427 0.012,-11.824 9.605,-21.398 21.426,-21.387 11.822,0.011 21.398,9.605 21.387,21.427 z"
   id="path86" />

					</g>

					<g
   id="g90">
						<g
   id="g88">
							<path
   style="fill:#182638"
   d="m 227.879,286.828 c -0.009,9.275 -7.532,16.782 -16.804,16.775 -9.273,-0.009 -16.783,-7.533 -16.775,-16.807 0.009,-9.272 7.534,-16.782 16.806,-16.773 9.271,0.009 16.782,7.532 16.773,16.805 z"
   id="path87" />

						</g>

						<g
   id="g89">
							<path
   style="fill:#131d2b"
   d="m 224.087,276.186 c 0.823,1.985 1.28,4.159 1.278,6.442 -0.008,9.273 -7.532,16.782 -16.805,16.775 -5.235,-0.004 -9.906,-2.407 -12.982,-6.162 2.522,6.076 8.505,10.356 15.497,10.363 9.272,0.008 16.795,-7.5 16.804,-16.775 0.003,-4.038 -1.42,-7.744 -3.792,-10.643 z"
   id="path88" />

						</g>

					</g>

				</g>

			</g>
      <g
         id="g4"
         inkscape:label="badge">
        <polygon
           style="display:none;fill:#f8c437"
           points="416.478,327.093 403.351,406.764 83.522,406.764 83.522,332.507 "
           id="polygon105"
           inkscape:label="badge_background"
           transform="translate(1.3937716,-8.8272202)" />
        <text
           xml:space="preserve"
           style="font-style:italic;font-variant:normal;font-weight:bold;font-stretch:normal;font-size:12px;font-family:Hack;-inkscape-font-specification:'Hack, Bold Italic';font-variant-ligatures:normal;font-variant-caps:normal;font-variant-numeric:normal;font-variant-east-asian:normal;text-align:start;writing-mode:lr-tb;direction:ltr;text-anchor:start;display:none;fill:#000000"
           x="113.82469"
           y="389.32687"
           id="text107"
           inkscape:label="appname"><tspan
             sodipodi:role="line"
             id="tspan107"
             x="113.82469"
             y="389.32687"
             style="font-style:italic;font-variant:normal;font-weight:bold;font-stretch:normal;font-size:74.6667px;font-family:'Liberation Sans';-inkscape-font-specification:'Liberation Sans, Bold Italic';font-variant-ligatures:normal;font-variant-caps:normal;font-variant-numeric:normal;font-variant-east-asian:normal">luducat</tspan></text>
      </g>
    </g>
  </g>
</svg>
