<svg
  width="256"
  height="256"
  viewBox="0 0 256 256"
  xmlns="http://www.w3.org/2000/svg"
>
  <!-- Background -->
  <rect
    x="0"
    y="0"
    width="256"
    height="256"
    rx="28"
    ry="28"
    fill="#000000"
  />

  <!-- EPIC text group -->
  <g
    fill="#ffffff"
    transform="translate(18, 168) skewX(-4)"
  >
    <!-- E -->
    <path d="
      M 0 -96
      H 40
      V -78
      H 16
      V -56
      H 36
      V -38
      H 16
      V -18
      H 40
      V 0
      H 0
      Z
    "/>

    <!-- P -->
    <path d="
      M 52 -96
      H 82
      C 102 -96 114 -84 114 -62
      C 114 -40 102 -28 82 -28
      H 70
      V 0
      H 52
      Z

      M 70 -78
      V -46
      H 80
      C 90 -46 96 -52 96 -62
      C 96 -72 90 -78 80 -78
      Z
    "/>

    <!-- I -->
    <path d="
      M 130 -96
      H 146
      V 0
      H 130
      Z
    "/>

    <!-- C -->
    <path d="
      M 162 -48
      C 162 -76 182 -96 204 -96
      H 218
      V -78
      H 206
      C 192 -78 180 -66 180 -48
      C 180 -30 192 -18 206 -18
      H 218
      V 0
      H 204
      C 182 0 162 -18 162 -48
      Z
    "/>
  </g>
</svg>

