<?xml version="1.0" encoding="UTF-8" standalone="no"?>
<svg
   clip-rule="evenodd"
   fill-rule="evenodd"
   stroke-linejoin="round"
   stroke-miterlimit="2"
   viewBox="0 0 560 400"
   version="1.1"
   id="svg14"
   xmlns="http://www.w3.org/2000/svg">
  <defs id="defs14">
    <clipPath id="frameClip">
      <path d="m0 0c0-.806-.325-1.53-.853-2.059-.528-.527-1.253-.851-2.057-.851h-48.315c-.805 0-1.529.324-2.057.851-.528.529-.851 1.253-.853 2.059v45.578c.002.805.325 1.528.853 2.057.528.527 1.252.851 2.057.852h48.315c.804-.001 1.529-.325 2.057-.852.528-.529.853-1.252.853-2.057z"
            transform="matrix(3.53736 0 0 -3.53736 375.747027 253.749564)" />
    </clipPath>
  </defs>
  <!-- Purple background inside the frame -->
  <rect x="93" y="73" width="374" height="254" fill="#7B2D8E" clip-path="url(#frameClip)"/>
  <g fill="#ffffff" id="g14">
    <path
       d="m0 0h-6.577c-.516 0-.93-.419-.93-.935 0 0 .002 0 .002-.006h-.002v-4.693h.002l-.002-.004c0-.514.414-.937.93-.937h6.577v-3.131h-8.207v.008c-1.343 0-2.429 1.086-2.429 2.425v7.98c0 1.332 1.086 2.418 2.429 2.418h8.207z"
       transform="matrix(3.53736 0 0 -3.53736 239.59404 200.161744)"
       id="path8" />
    <path
       d="m0 0c0-1.365-1.103-2.463-2.462-2.463h-10.556v3.173h8.9c.524 0 .944.428.944.949v10.488c0 .523-.42.947-.944.947h-4.783c-.523 0-.944-.424-.944-.947v-4.773c0-.524.421-.949.944-.949h3.821v-3.173h-5.477c-1.362 0-2.461 1.1-2.461 2.461v8.094c0 1.36 1.099 2.462 2.461 2.462h8.095c1.359 0 2.462-1.102 2.462-2.462z"
       transform="matrix(3.53736 0 0 -3.53736 247.991733 169.337189)"
       id="path9" />
    <path
       d="m0 0h-3.128v9.698h-2.198c-.517 0-.931-.419-.931-.935v-8.763h-3.128v9.698h-2.199c-.518 0-.932-.419-.932-.935v-8.771h-3.127v10.413c0 1.332 1.083 2.418 2.426 2.418h13.217z"
       transform="matrix(3.53736 0 0 -3.53736 358.024853 234.467061)"
       id="path10" />
    <path
       d="m0 0c0-1.365-1.104-2.463-2.461-2.463h-10.557v3.173h8.9c.526 0 .948.428.948.949v10.488c0 .523-.422.947-.948.947h-4.782c-.518 0-.941-.424-.941-.947v-4.773c0-.524.423-.949.941-.949h3.819v-3.173h-5.474c-1.362 0-2.463 1.1-2.463 2.461v8.094c0 1.36 1.101 2.462 2.463 2.462h8.094c1.357 0 2.461-1.102 2.461-2.462z"
       transform="matrix(3.53736 0 0 -3.53736 358.05669 169.337189)"
       id="path11" />
    <path
       d="m0 .008v-4.773c0-.524-.411-.95-.936-.95h-4.781c-.525 0-.945.426-.945.95v4.773c0 .523.42.946.945.946h4.781c.525 0 .936-.423.936-.946zm.721 4.121h-8.098c-1.36 0-2.459-1.102-2.459-2.462v-8.094c0-1.36 1.099-2.461 2.459-2.461h8.098c1.356 0 2.46 1.101 2.46 2.461v8.094c0 1.36-1.104 2.462-2.46 2.462"
       transform="matrix(3.53736 0 0 -3.53736 291.773638 126.393638)"
       id="path12" />
    <path
       d="m0 .006v-4.699c0-.516-.414-.937-.928-.937-.005 0-.006.005-.011.005v-.005h-4.692v.005s-.005-.005-.01-.005c-.516 0-.93.421-.93.937v4.699c0 .516.414.935.93.935h4.713c.514 0 .928-.419.928-.935zm.703 4.06h-7.976c-1.343 0-2.427-1.086-2.427-2.418v-7.98c0-1.339 1.084-2.425 2.427-2.425h7.976c1.338 0 2.424 1.086 2.424 2.425v7.98c0 1.332-1.086 2.418-2.424 2.418"
       transform="matrix(3.53736 0 0 -3.53736 282.763982 203.490399)"
       id="path13" />
    <path
       d="m0 0c0-.806-.325-1.53-.853-2.059-.528-.527-1.253-.851-2.057-.851h-48.315c-.805 0-1.529.324-2.057.851-.528.529-.851 1.253-.853 2.059v45.578c.002.805.325 1.528.853 2.057.528.527 1.252.851 2.057.852h48.315c.804-.001 1.529-.325 2.057-.852.528-.529.853-1.252.853-2.057zm-.004 48.485c-.742.744-1.772 1.204-2.906 1.204h-48.315c-1.134 0-2.164-.46-2.906-1.204-.744-.742-1.206-1.774-1.206-2.907v-45.578c0-1.134.462-2.166 1.206-2.908.742-.743 1.772-1.205 2.906-1.205h48.315c1.134 0 2.164.462 2.906 1.205.744.742 1.206 1.774 1.206 2.908v45.578c0 1.133-.462 2.165-1.206 2.907"
       fill-rule="nonzero"
       transform="matrix(3.53736 0 0 -3.53736 375.747027 253.749564)"
       id="path14"
       style="fill:#ffffff;fill-opacity:1" />
  </g>
</svg>
