<svg xmlns="http://www.w3.org/2000/svg" width="24" height="24" viewBox="0 0 24 24" fill="none" stroke="#000000" stroke-width="2" stroke-linecap="round" stroke-linejoin="round">
  <circle cx="13.5" cy="6.5" r="2.5"/>
  <circle cx="19" cy="11.5" r="1.5"/>
  <circle cx="17" cy="17.5" r="1.5"/>
  <circle cx="6.5" cy="12.5" r="1.5"/>
  <circle cx="10" cy="17.5" r="1.5"/>
  <path d="M12 2C6.5 2 2 6.5 2 12s4.5 10 10 10c.9 0 1.7-.8 1.7-1.7 0-.4-.2-.8-.4-1.1-.3-.3-.4-.7-.4-1.1 0-.9.8-1.7 1.7-1.7H17c3.3 0 6-2.7 6-6 0-5.2-4.9-9.4-11-8.4"/>
</svg>
